<svg width="278" height="277" xmlns="http://www.w3.org/2000/svg" xmlns:xlink="http://www.w3.org/1999/xlink" xml:space="preserve" overflow="hidden"><defs><clipPath id="clip0"><rect x="127" y="83" width="278" height="277"/></clipPath></defs><g clip-path="url(#clip0)" transform="translate(-127 -83)"><path d="M0 34.625C0 15.5271 15.5271 0 34.625 0L242.375 0C261.473 0 277 15.5271 277 34.625L277 190.438C277 209.535 261.473 225.062 242.375 225.062L167.336 225.062 100.413 275.269C97.8156 277.216 94.299 277.541 91.3234 276.08 88.3479 274.62 86.5625 271.644 86.5625 268.344L86.5625 225.062 34.625 225.062C15.5271 225.062-1.53766e-14 209.535-1.53766e-14 190.438L0 34.625ZM60.5938 112.531C60.5938 115.831 61.8381 119.186 64.3809 121.729L99.0059 156.354C101.549 158.896 104.849 160.141 108.203 160.141 111.557 160.141 114.858 158.896 117.4 156.354 122.486 151.268 122.486 143.045 117.4 138.013L91.9727 112.585 117.4 87.1576C122.486 82.0721 122.486 73.8486 117.4 68.8172 114.858 66.2744 111.557 65.0301 108.203 65.0301 104.849 65.0301 101.549 66.2744 99.0059 68.8172L64.3809 103.442C61.8381 105.985 60.5938 109.285 60.5938 112.639ZM159.6 68.709C154.514 73.7945 154.514 82.018 159.6 87.0494L185.027 112.477 159.6 137.905C154.514 142.99 154.514 151.214 159.6 156.245 162.142 158.788 165.443 160.032 168.797 160.032 172.151 160.032 175.451 158.788 177.994 156.245L212.619 121.62C215.162 119.078 216.406 115.777 216.406 112.423 216.406 109.069 215.162 105.769 212.619 103.226L177.994 68.6008C175.451 66.058 172.151 64.8137 168.797 64.8137 165.443 64.8137 162.142 66.058 159.6 68.6008Z" fill="#EF6782" fill-opacity="0.4" transform="matrix(1.00361 0 0 1 127 83)"/><path d="M117.4 68.709C122.486 73.7945 122.486 82.018 117.4 87.0494L91.9727 112.477 117.4 137.905C122.486 142.99 122.486 151.214 117.4 156.245 112.315 161.277 104.091 161.331 99.06 156.245L64.435 121.62C59.3494 116.535 59.3494 108.311 64.435 103.28L99.06 68.6549C104.146 63.5693 112.369 63.5693 117.4 68.6549ZM159.654 68.709C164.739 63.6234 172.963 63.6234 177.994 68.709L212.619 103.334C217.705 108.42 217.705 116.643 212.619 121.674L177.994 156.299C172.909 161.385 164.685 161.385 159.654 156.299 154.622 151.214 154.568 142.99 159.654 137.959L185.081 112.531 159.654 87.1035C154.568 82.018 154.568 73.7945 159.654 68.7631Z" fill="#EF6782" transform="matrix(1.00361 0 0 1 127 83)"/></g></svg>