<svg width="347" height="277" xmlns="http://www.w3.org/2000/svg" xmlns:xlink="http://www.w3.org/1999/xlink" xml:space="preserve" overflow="hidden"><defs><clipPath id="clip0"><rect x="557" y="83" width="347" height="277"/></clipPath></defs><g clip-path="url(#clip0)" transform="translate(-557 -83)"><path d="M34.625 138.5C34.625 152.404 36.6809 165.821 40.468 178.427 41.4418 179.022 42.3615 179.617 43.2812 180.266 58.2674 169.5 79.2047 170.907 92.676 184.432 107.608 199.418 107.608 223.71 92.676 238.75L85.5887 245.837C109.502 265.314 139.961 277 173.125 277 201.961 277 228.741 268.181 250.923 253.087 238.696 237.993 239.562 215.811 253.574 201.745 266.017 189.247 284.845 187.137 299.452 195.361 307.297 177.994 311.625 158.734 311.625 138.5 311.625 120.105 308.054 102.577 301.562 86.5084 295.016 86.1838 288.578 83.4787 283.6 78.4473L253.574 48.2586C245.459 40.0893 241.78 29.2148 242.483 18.5568 222.087 6.7627 198.39 0 173.125 0 96.6254 0 34.625 62.0004 34.625 138.5ZM96.95 115.994C113.397 94.0826 146.291 94.0826 162.737 115.994 165.605 119.835 164.847 125.245 161.006 128.113 157.165 130.98 151.755 130.222 148.888 126.381 139.366 113.667 120.322 113.667 110.8 126.381 107.933 130.222 102.522 130.98 98.6812 128.113 94.84 125.245 94.0826 119.835 96.95 115.994ZM110.313 187.462C107.175 183.837 107.554 178.373 111.179 175.235 114.804 172.097 120.268 172.476 123.406 176.101 133.09 187.3 149.645 199.094 173.125 199.094 196.605 199.094 213.16 187.3 222.844 176.101 225.982 172.476 231.446 172.097 235.071 175.235 238.696 178.373 239.075 183.837 235.937 187.462 223.872 201.312 202.935 216.406 173.125 216.406 143.315 216.406 122.378 201.312 110.313 187.462ZM183.513 115.994C199.959 94.0826 232.853 94.0826 249.3 115.994 252.167 119.835 251.41 125.245 247.569 128.113 243.728 130.98 238.317 130.222 235.45 126.381 225.928 113.667 206.884 113.667 197.362 126.381 194.495 130.222 189.085 130.98 185.244 128.113 181.403 125.245 180.645 119.835 183.513 115.994Z" fill="#B2132E" fill-opacity="0.4" transform="matrix(1.00217 0 0 1 557 83)"/><path d="M310.381 6.22168 302.969 13.6877 295.557 6.16758C287.333-2.10996 274.024-2.10996 265.855 6.16758 257.686 14.4451 257.632 27.8082 265.855 36.0316L295.881 66.2203C299.831 70.1697 306.215 70.1697 310.11 66.2203L340.082 36.0316C348.306 27.7541 348.306 14.391 340.082 6.16758 331.859-2.05586 318.55-2.10996 310.381 6.16758ZM148.888 126.381C151.755 130.222 157.165 130.98 161.006 128.113 164.847 125.245 165.605 119.835 162.737 115.994 146.291 94.0826 113.397 94.0826 96.95 115.994 94.0826 119.835 94.84 125.245 98.6812 128.113 102.522 130.98 107.933 130.222 110.8 126.381 120.322 113.667 139.366 113.667 148.888 126.381ZM235.45 126.381C238.317 130.222 243.728 130.98 247.569 128.113 251.41 125.245 252.167 119.835 249.3 115.994 232.853 94.0826 199.959 94.0826 183.513 115.994 180.645 119.835 181.403 125.245 185.244 128.113 189.085 130.98 194.495 130.222 197.362 126.381 206.884 113.667 225.928 113.667 235.45 126.381ZM340.082 213.972C331.859 205.694 318.55 205.694 310.381 213.972L302.969 221.438 295.557 213.972C287.333 205.694 274.024 205.694 265.855 213.972 257.686 222.249 257.632 235.612 265.855 243.836L295.881 274.024C299.831 277.974 306.215 277.974 310.11 274.024L340.082 243.836C348.306 235.558 348.306 222.195 340.082 213.972ZM50.6932 196.659 43.2812 204.125 35.8693 196.605C27.6459 188.328 14.3369 188.328 6.16758 196.605-2.00176 204.883-2.05586 218.246 6.16758 226.469L36.1939 256.658C40.1434 260.607 46.5273 260.607 50.4227 256.658L80.3949 226.469C88.6184 218.192 88.6184 204.829 80.3949 196.605 72.1715 188.382 58.8625 188.328 50.6932 196.605Z" fill="#B2132E" transform="matrix(1.00217 0 0 1 557 83)"/></g></svg>