<svg width="384" height="512" xmlns="http://www.w3.org/2000/svg" xmlns:xlink="http://www.w3.org/1999/xlink" xml:space="preserve" overflow="hidden"><g transform="translate(-663 -77)"><path d="M663 141C663 105.7 691.7 77 727 77L887 77 887 205C887 222.7 901.3 237 919 237L1047 237 1047 525C1047 560.3 1018.3 589 983 589L727 589C691.7 589 663 560.3 663 525L663 141ZM759 349C759 357.8 766.2 365 775 365L935 365C943.8 365 951 357.8 951 349 951 340.2 943.8 333 935 333L775 333C766.2 333 759 340.2 759 349ZM759 413C759 421.8 766.2 429 775 429L935 429C943.8 429 951 421.8 951 413 951 404.2 943.8 397 935 397L775 397C766.2 397 759 404.2 759 413ZM759 477C759 485.8 766.2 493 775 493L935 493C943.8 493 951 485.8 951 477 951 468.2 943.8 461 935 461L775 461C766.2 461 759 468.2 759 477Z" fill="#B2132E" fill-opacity="0.4"/><path d="M1047 237 887 77 887 205C887 222.7 901.3 237 919 237L1047 237ZM775 333C766.2 333 759 340.2 759 349 759 357.8 766.2 365 775 365L935 365C943.8 365 951 357.8 951 349 951 340.2 943.8 333 935 333L775 333ZM775 397C766.2 397 759 404.2 759 413 759 421.8 766.2 429 775 429L935 429C943.8 429 951 421.8 951 413 951 404.2 943.8 397 935 397L775 397ZM775 461C766.2 461 759 468.2 759 477 759 485.8 766.2 493 775 493L935 493C943.8 493 951 485.8 951 477 951 468.2 943.8 461 935 461L775 461Z" fill="#B2132E"/></g></svg>