<svg width="384" height="512" xmlns="http://www.w3.org/2000/svg" xmlns:xlink="http://www.w3.org/1999/xlink" xml:space="preserve" overflow="hidden"><g transform="translate(-143 -79)"><path d="M143 143C143 107.7 171.7 79 207 79L367 79 367 207C367 224.7 381.3 239 399 239L527 239 527 527C527 562.3 498.3 591 463 591L207 591C171.7 591 143 562.3 143 527L143 143ZM239 351C239 359.8 246.2 367 255 367L415 367C423.8 367 431 359.8 431 351 431 342.2 423.8 335 415 335L255 335C246.2 335 239 342.2 239 351ZM239 415C239 423.8 246.2 431 255 431L415 431C423.8 431 431 423.8 431 415 431 406.2 423.8 399 415 399L255 399C246.2 399 239 406.2 239 415ZM239 479C239 487.8 246.2 495 255 495L415 495C423.8 495 431 487.8 431 479 431 470.2 423.8 463 415 463L255 463C246.2 463 239 470.2 239 479Z" fill="#EF6782" fill-opacity="0.4"/><path d="M527 239 367 79 367 207C367 224.7 381.3 239 399 239L527 239ZM255 335C246.2 335 239 342.2 239 351 239 359.8 246.2 367 255 367L415 367C423.8 367 431 359.8 431 351 431 342.2 423.8 335 415 335L255 335ZM255 399C246.2 399 239 406.2 239 415 239 423.8 246.2 431 255 431L415 431C423.8 431 431 423.8 431 415 431 406.2 423.8 399 415 399L255 399ZM255 463C246.2 463 239 470.2 239 479 239 487.8 246.2 495 255 495L415 495C423.8 495 431 487.8 431 479 431 470.2 423.8 463 415 463L255 463Z" fill="#EF6782"/></g></svg>