<svg width="278" height="277" xmlns="http://www.w3.org/2000/svg" xmlns:xlink="http://www.w3.org/1999/xlink" xml:space="preserve" overflow="hidden"><defs><clipPath id="clip0"><rect x="92" y="387" width="278" height="277"/></clipPath></defs><g clip-path="url(#clip0)" transform="translate(-92 -387)"><path d="M277 138.5C277 214.992 214.992 277 138.5 277 62.0085 277-1.53766e-14 214.992-1.53766e-14 138.5-4.61298e-14 62.0085 62.0085-1.53766e-14 138.5-1.53766e-14 214.992-4.61298e-14 277 62.0085 277 138.5ZM34.625 138.5C34.625 148.061 42.3761 155.812 51.9375 155.812 61.4989 155.812 69.25 148.061 69.25 138.5 69.25 128.939 61.4989 121.188 51.9375 121.188 42.3761 121.188 34.625 128.939 34.625 138.5ZM60.5938 77.9062C60.5938 87.4676 68.3449 95.2188 77.9062 95.2188 87.4676 95.2188 95.2188 87.4676 95.2188 77.9062 95.2188 68.3449 87.4676 60.5938 77.9062 60.5938 68.3449 60.5938 60.5938 68.3449 60.5938 77.9062ZM103.875 190.438C103.875 209.535 119.402 225.062 138.5 225.062 148.076 225.062 156.732 221.167 163.008 214.945 166.146 211.808 168.689 208.075 170.42 203.963 171.286 201.907 171.989 199.743 172.422 197.471 172.638 196.335 172.854 195.198 172.963 194.008 173.017 193.413 173.071 192.818 173.071 192.277 173.125 191.682 173.125 191.087 173.125 190.492 173.125 190.005 173.125 189.518 173.071 189.031 173.017 188.544 173.017 188.057 172.963 187.57 172.854 186.596 172.746 185.622 172.584 184.649 193.792 171.502 215 158.409 236.153 145.263 238.155 144.018 239.67 142.341 240.698 140.448 241.239 139.474 241.618 138.5 241.888 137.418 241.996 136.877 242.104 136.336 242.213 135.849 242.267 135.579 242.267 135.308 242.267 135.038 242.267 134.875 242.267 134.767 242.267 134.226L242.213 133.306C242.213 133.306 242.159 132.873 242.104 132.441 242.05 131.846 241.888 131.304 241.726 130.709 241.401 129.573 240.914 128.437 240.265 127.355 236.478 121.242 228.471 119.348 222.412 123.135 201.204 136.282 179.996 149.374 158.842 162.521 153.216 158.301 146.128 155.812 138.5 155.812 119.402 155.812 103.875 171.34 103.875 190.438ZM121.188 51.9375C121.188 61.4989 128.939 69.25 138.5 69.25 148.061 69.25 155.812 61.4989 155.812 51.9375 155.812 42.3761 148.061 34.625 138.5 34.625 128.939 34.625 121.188 42.3761 121.188 51.9375ZM181.781 77.9062C181.781 87.4676 189.532 95.2188 199.094 95.2188 208.655 95.2188 216.406 87.4676 216.406 77.9062 216.406 68.3449 208.655 60.5938 199.094 60.5938 189.532 60.5938 181.781 68.3449 181.781 77.9062Z" fill="#EF6782" fill-opacity="0.4" transform="matrix(1.00361 0 0 1 92 387)"/><path d="M222.574 123.135C228.687 119.348 236.694 121.242 240.427 127.355 244.16 133.469 242.321 141.476 236.207 145.209L172.638 184.595C172.963 186.488 173.125 188.436 173.125 190.438 173.125 209.535 157.598 225.062 138.5 225.062 119.402 225.062 103.875 209.535 103.875 190.438 103.875 171.34 119.402 155.812 138.5 155.812 146.128 155.812 153.216 158.301 158.95 162.521L222.52 123.135Z" fill="#EF6782" transform="matrix(1.00361 0 0 1 92 387)"/></g></svg>