<svg width="277" height="277" xmlns="http://www.w3.org/2000/svg" xmlns:xlink="http://www.w3.org/1999/xlink" xml:space="preserve" overflow="hidden"><g transform="translate(-607 -406)"><path d="M615.656 481.58C615.927 535.411 638 633.605 731.217 678.239 740.252 682.567 750.748 682.567 759.783 678.239 853 633.605 875.073 535.411 875.344 481.742 875.344 467.459 866.471 455.828 854.623 450.796L752.75 407.569C750.477 406.541 748.043 406 745.5 406 742.957 406 740.523 406.541 738.25 407.569L636.377 450.796C624.529 455.828 615.656 467.459 615.656 481.58ZM680.578 544.5C680.578 541.2 681.822 537.846 684.365 535.303 689.451 530.217 697.674 530.217 702.706 535.303L728.133 560.73C748.151 540.713 768.169 520.695 788.186 500.678 790.729 498.135 794.029 496.891 797.383 496.891 800.738 496.891 804.038 498.135 806.581 500.678 807.825 501.922 808.799 503.383 809.448 504.952 809.773 505.709 809.989 506.521 810.151 507.332 810.26 507.927 810.314 508.522 810.314 508.522 810.368 509.172 810.368 509.172 810.368 509.875 810.314 510.687 810.314 510.903 810.314 511.119 810.26 511.498 810.205 511.931 810.151 512.31 809.989 513.121 809.773 513.933 809.448 514.69 808.799 516.259 807.879 517.72 806.581 518.964 783.479 542.065 760.432 565.113 737.331 588.214 734.788 590.757 731.488 592.001 728.133 592.001 724.779 592.001 721.479 590.757 718.936 588.214 707.412 576.69 695.835 565.113 684.311 553.589 681.768 551.046 680.524 547.746 680.524 544.392Z" fill="#EF6782" fill-opacity="0.4"/><path d="M806.635 500.678C811.72 505.763 811.72 513.987 806.635 519.018L737.385 588.322C732.299 593.408 724.076 593.408 719.044 588.322L684.419 553.697C679.334 548.612 679.334 540.388 684.419 535.357 689.505 530.325 697.728 530.271 702.76 535.357L728.188 560.785 788.24 500.678C793.326 495.592 801.549 495.592 806.581 500.678Z" fill="#EF6782"/></g></svg>