<svg width="407" height="361" xmlns="http://www.w3.org/2000/svg" xmlns:xlink="http://www.w3.org/1999/xlink" xml:space="preserve" overflow="hidden"><defs><clipPath id="clip0"><rect x="640" y="75" width="407" height="361"/></clipPath></defs><g clip-path="url(#clip0)" transform="translate(-640 -75)"><path d="M56.4062 56.4062 56.4062 208.703C56.4062 211.805 58.9445 214.344 62.0469 214.344L203.062 214.344 344.078 214.344C347.18 214.344 349.719 211.805 349.719 208.703L349.719 56.4062 56.4062 56.4062Z" fill="#B2132E" fill-opacity="0.4" transform="matrix(1.00215 0 0 1 640 75)"/><path d="M16.9219 0C7.54434 0 0 7.54434 0 16.9219 0 26.2994 7.54434 33.8438 16.9219 33.8438L389.203 33.8438C398.581 33.8438 406.125 26.2994 406.125 16.9219 406.125 7.54434 398.581 0 389.203 0L16.9219 0ZM22.5625 56.4062 22.5625 208.703C22.5625 230.49 40.26 248.188 62.0469 248.188L186.141 248.188 186.141 280.692 134.67 332.162C128.042 338.79 128.042 349.507 134.67 356.064 141.298 362.622 152.015 362.692 158.572 356.064L202.992 311.645 247.412 356.064C254.04 362.692 264.757 362.692 271.314 356.064 277.871 349.437 277.942 338.72 271.314 332.162L219.843 280.692 219.843 248.188 343.937 248.188C365.724 248.188 383.421 230.49 383.421 208.703L383.421 56.4062 349.578 56.4062 349.578 208.703C349.578 211.805 347.039 214.344 343.937 214.344L202.921 214.344 62.0469 214.344C58.9445 214.344 56.4062 211.805 56.4062 208.703L56.4062 56.4062 22.5625 56.4062Z" fill="#B2132E" transform="matrix(1.00215 0 0 1 640 75)"/></g></svg>