<svg width="406" height="361" xmlns="http://www.w3.org/2000/svg" xmlns:xlink="http://www.w3.org/1999/xlink" xml:space="preserve" overflow="hidden"><defs><clipPath id="clip0"><rect x="79" y="75" width="406" height="361"/></clipPath></defs><g clip-path="url(#clip0)" transform="translate(-79 -75)"><path d="M56.3889 56.3889 56.3889 208.639C56.3889 211.74 58.9264 214.278 62.0278 214.278L203 214.278 343.972 214.278C347.074 214.278 349.611 211.74 349.611 208.639L349.611 56.3889 56.3889 56.3889Z" fill="#EF6782" fill-opacity="0.4" transform="matrix(1 0 0 1.00031 79 75)"/><path d="M16.9167 0C7.54201 0 0 7.54201 0 16.9167 0 26.2913 7.54201 33.8333 16.9167 33.8333L389.083 33.8333C398.458 33.8333 406 26.2913 406 16.9167 406 7.54201 398.458 0 389.083 0L16.9167 0ZM22.5556 56.3889 22.5556 208.639C22.5556 230.419 40.2476 248.111 62.0278 248.111L186.083 248.111 186.083 280.605 134.628 332.06C128.003 338.686 128.003 349.4 134.628 355.955 141.254 362.51 151.968 362.581 158.523 355.955L202.93 311.549 247.336 355.955C253.961 362.581 264.675 362.581 271.231 355.955 277.786 349.329 277.856 338.615 271.231 332.06L219.776 280.605 219.776 248.111 343.831 248.111C365.611 248.111 383.303 230.419 383.303 208.639L383.303 56.3889 349.47 56.3889 349.47 208.639C349.47 211.74 346.933 214.278 343.831 214.278L202.859 214.278 62.0278 214.278C58.9264 214.278 56.3889 211.74 56.3889 208.639L56.3889 56.3889 22.5556 56.3889Z" fill="#EF6782" transform="matrix(1 0 0 1.00031 79 75)"/></g></svg>