<svg
   viewBox="0 0 135.46667 135.46667"
   version="1.1"
   id="svg1"
   xml:space="preserve"
   inkscape:version="1.4.2 (f4327f4, 2025-05-13)"
   sodipodi:docname="LONG.svg"
   xmlns:inkscape="http://www.inkscape.org/namespaces/inkscape"
   xmlns:sodipodi="http://sodipodi.sourceforge.net/DTD/sodipodi-0.dtd"
   xmlns="http://www.w3.org/2000/svg"
   xmlns:svg="http://www.w3.org/2000/svg"><sodipodi:namedview
     id="namedview1"
     pagecolor="#505050"
     bordercolor="#eeeeee"
     borderopacity="1"
     inkscape:showpageshadow="0"
     inkscape:pageopacity="0"
     inkscape:pagecheckerboard="0"
     inkscape:deskcolor="#505050"
     inkscape:document-units="mm"
     inkscape:zoom="0.35355339"
     inkscape:cx="299.81327"
     inkscape:cy="552.9575"
     inkscape:window-width="1704"
     inkscape:window-height="1351"
     inkscape:window-x="0"
     inkscape:window-y="0"
     inkscape:window-maximized="0"
     inkscape:current-layer="layer3-4" /><defs
     id="defs1"><inkscape:path-effect
       effect="fillet_chamfer"
       id="path-effect5"
       is_visible="true"
       lpeversion="1"
       nodesatellites_param="F,0,0,1,0,0,0,1 @ F,0,0,1,0,0,0,1 @ F,0,0,1,0,0,0,1 @ F,0,0,1,0,0,0,1 @ F,0,0,1,0,0,0,1 @ F,0,0,1,0,0,0,1"
       radius="0"
       unit="px"
       method="auto"
       mode="F"
       chamfer_steps="1"
       flexible="false"
       use_knot_distance="true"
       apply_no_radius="true"
       apply_with_radius="true"
       only_selected="false"
       hide_knots="false" /><inkscape:path-effect
       effect="fillet_chamfer"
       id="path-effect4"
       is_visible="true"
       lpeversion="1"
       nodesatellites_param="F,0,0,1,0,0,0,1 @ F,0,0,1,0,0,0,1 @ F,0,0,1,0,0,0,1 @ F,0,0,1,0,0,0,1"
       radius="0"
       unit="px"
       method="auto"
       mode="F"
       chamfer_steps="1"
       flexible="false"
       use_knot_distance="true"
       apply_no_radius="true"
       apply_with_radius="true"
       only_selected="false"
       hide_knots="false" /><inkscape:path-effect
       effect="fillet_chamfer"
       id="path-effect5-0"
       is_visible="true"
       lpeversion="1"
       nodesatellites_param="F,0,0,1,0,0,0,1 @ F,0,0,1,0,0,0,1 @ F,0,0,1,0,0,0,1 @ F,0,0,1,0,0,0,1 @ F,0,0,1,0,0,0,1 @ F,0,0,1,0,0,0,1"
       radius="0"
       unit="px"
       method="auto"
       mode="F"
       chamfer_steps="1"
       flexible="false"
       use_knot_distance="true"
       apply_no_radius="true"
       apply_with_radius="true"
       only_selected="false"
       hide_knots="false" /></defs><g
     inkscape:label="Boxes"
     inkscape:groupmode="layer"
     id="layer1"
     style="display:inline"><rect
       style="fill:currentColor;fill-opacity:1;stroke:none;stroke-width:0;stroke-linecap:round;stroke-linejoin:round;stroke-dasharray:none;stroke-opacity:0.373077"
       id="rect1"
       width="80"
       height="25"
       x="0"
       y="110.65343"
       rx="9"
       ry="9" /><rect
       style="fill:currentColor;fill-opacity:1;stroke:none;stroke-width:0;stroke-linecap:round;stroke-linejoin:round;stroke-dasharray:none;stroke-opacity:0.373077"
       id="rect1-5"
       width="80"
       height="67.486786"
       x="-0.0020665473"
       y="33.83363"
       rx="9"
       ry="9" /><rect
       style="fill:currentColor;fill-opacity:1;stroke:none;stroke-width:0;stroke-linecap:round;stroke-linejoin:round;stroke-dasharray:none;stroke-opacity:0.373077"
       id="rect1-8"
       width="80"
       height="25"
       x="0"
       y="0"
       rx="9"
       ry="9" /></g><g
     inkscape:groupmode="layer"
     id="layer2"
     inkscape:label="Arrow"
     style="display:none"><path
       d="m 107.61263,2.4738557 c -3.3073,-3.3072917 -8.678307,-3.3072917 -11.985598,0 l -25.4,25.4000003 c -3.307292,3.307292 -3.307292,8.678334 0,11.985625 3.307291,3.307292 8.678333,3.307292 11.985625,0 l 10.95375,-10.95375 V 106.56095 L 82.212657,95.607187 c -3.307292,-3.30729 -8.678334,-3.30729 -11.985625,0 -3.307292,3.30729 -3.307292,8.678343 0,11.985633 l 25.4,25.4 c 3.307291,3.30729 8.678298,3.30729 11.985598,0 l 25.4,-25.4 c 3.30729,-3.30729 3.30729,-8.678343 0,-11.985633 -3.3073,-3.30729 -8.67834,-3.30729 -11.98563,0 L 110.09971,106.53449 V 28.879273 l 10.95375,10.95375 c 3.30729,3.307292 8.67833,3.307292 11.98562,0 3.3073,-3.307292 3.3073,-8.678333 0,-11.985625 l -25.4,-25.4000003 z"
       id="path1-3"
       style="display:none;stroke-width:0.264583"
       inkscape:label="path1-3"
       sodipodi:insensitive="true" /><path
       d="m 107.5611,26.821167 c -3.3073,-3.3073 -8.6782,-3.3073 -11.9855,0 l -25.4,25.4001 c -3.3073,3.3073 -3.3073,8.6783 0,11.9856 3.3073,3.3073 8.6783,3.3073 11.9856,0 l 10.9537,-10.9537 v 30.6546 l -10.9537,-10.9532 c -3.3073,-3.3073 -8.6783,-3.3073 -11.9856,0 -3.3073,3.3073 -3.3073,8.6778 0,11.985 l 25.4,25.400003 c 3.3073,3.3073 8.6782,3.3073 11.9855,0 l 25.4,-25.400003 c 3.3073,-3.3073 3.3073,-8.6778 0,-11.985 -3.3073,-3.3073 -8.6783,-3.3073 -11.9856,0 l -10.9273,10.9267 v -30.6546 l 10.9537,10.9537 c 3.3073,3.3073 8.6783,3.3073 11.9856,0 3.3073,-3.3073 3.3073,-8.6783 0,-11.9856 l -25.4,-25.4001 z"
       id="path1-3-9"
       style="display:none;fill:currentColor;stroke-width:0.264583" /></g><g
     inkscape:groupmode="layer"
     id="layer3"
     inkscape:label="Lines Long"
     style="display:none;fill:#ff0000"><rect
       style="fill:currentColor;fill-opacity:1;stroke:none;stroke-width:0;stroke-linecap:round;stroke-linejoin:round;stroke-dasharray:none;stroke-opacity:0.373077"
       id="rect3"
       width="50"
       height="17"
       x="85.471382"
       y="0"
       rx="9"
       ry="9" /><rect
       style="fill:currentColor;fill-opacity:1;stroke:none;stroke-width:0;stroke-linecap:round;stroke-linejoin:round;stroke-dasharray:none;stroke-opacity:0.373077"
       id="rect3-2"
       width="50"
       height="17"
       x="85.471382"
       y="118.47476"
       rx="9"
       ry="9" /><path
       style="fill:currentColor;fill-opacity:1;stroke:none;stroke-width:0;stroke-linecap:round;stroke-linejoin:round;stroke-dasharray:none;stroke-opacity:0.373077"
       id="rect4"
       width="17"
       height="130.58789"
       x="102.4"
       y="3.2580018"
       sodipodi:type="rect"
       inkscape:path-effect="#path-effect5"
       d="m 110.9,3.2580018 c 4.709,0 8.5,4.014 8.5,9.0000002 V 124.84589 c 0,4.986 -3.791,9 -8.5,9 -4.709,0 -8.5,-4.014 -8.5,-9 V 12.258002 c 0,-4.9860002 3.791,-9.0000002 8.5,-9.0000002 z"
       rx="9"
       ry="9" /></g><g
     inkscape:groupmode="layer"
     id="layer3-4"
     inkscape:label="Lines Short"
     style="display:inline;fill:#ff0000"
     transform="translate(-0.0045439,8.5667135e-4)"><rect
       style="fill:currentColor;fill-opacity:1;stroke:none;stroke-width:0;stroke-linecap:round;stroke-linejoin:round;stroke-dasharray:none;stroke-opacity:0.373077"
       id="rect3-8"
       width="50"
       height="17"
       x="85.471382"
       y="33"
       rx="9"
       ry="9" /><rect
       style="fill:currentColor;fill-opacity:1;stroke:none;stroke-width:0;stroke-linecap:round;stroke-linejoin:round;stroke-dasharray:none;stroke-opacity:0.373077"
       id="rect3-2-6"
       width="50"
       height="17"
       x="85.471382"
       y="84,321"
       rx="9"
       ry="9" /><path
       style="fill:currentColor;fill-opacity:1;stroke:none;stroke-width:0;stroke-linecap:round;stroke-linejoin:round;stroke-dasharray:none;stroke-opacity:0.373077"
       id="rect4-5"
       width="17"
       height="130.58789"
       x="102.4"
       y="3.2580018"
       sodipodi:type="rect"
       inkscape:path-effect="#path-effect5-0"
       d="m 110.9,3.2580018 c 4.709,0 8.5,4.014 8.5,9.0000002 V 124.84589 c 0,4.986 -3.791,9 -8.5,9 -4.709,0 -8.5,-4.014 -8.5,-9 V 12.258002 c 0,-4.9860002 3.791,-9.0000002 8.5,-9.0000002 z"
       rx="9"
       ry="9"
       transform="matrix(1,0,0,0.46105901,0,37.210037)" /></g></svg>
